<svg xmlns="http://www.w3.org/2000/svg" xmlns:xlink="http://www.w3.org/1999/xlink" width="645" zoomAndPan="magnify" viewBox="0 0 483.75 651.000003" height="868" preserveAspectRatio="xMidYMid meet" version="1.0"><defs><clipPath id="6b0ceece2b"><path d="M 115.84375 358 L 367.457031 358 L 367.457031 424 L 115.84375 424 Z M 115.84375 358 " clip-rule="nonzero"/></clipPath><clipPath id="dbeb270b39"><path d="M 124 423 L 141 423 L 141 439.503906 L 124 439.503906 Z M 124 423 " clip-rule="nonzero"/></clipPath><clipPath id="1d6365ecf0"><path d="M 343 423 L 360 423 L 360 439.503906 L 343 439.503906 Z M 343 423 " clip-rule="nonzero"/></clipPath><clipPath id="b958738011"><path d="M 225 285.242188 L 258 285.242188 L 258 343 L 225 343 Z M 225 285.242188 " clip-rule="nonzero"/></clipPath></defs><g clip-path="url(#6b0ceece2b)"><path fill="#d6e4e8" d="M 367.375 423.265625 L 115.925781 423.265625 L 115.925781 374.550781 C 115.925781 365.574219 123.199219 358.3125 132.148438 358.3125 L 351.152344 358.3125 C 360.121094 358.3125 367.375 365.574219 367.375 374.550781 L 367.375 423.265625 " fill-opacity="1" fill-rule="nonzero"/><path fill="#baced3" d="M 176.761719 411.085938 C 149.878906 411.085938 128.09375 389.28125 128.09375 362.371094 C 128.09375 361.121094 128.269531 359.914062 128.539062 358.742188 C 121.3125 360.40625 115.925781 366.828125 115.925781 374.550781 L 115.925781 423.265625 L 367.375 423.265625 L 367.375 411.085938 L 176.761719 411.085938 " fill-opacity="1" fill-rule="nonzero"/></g><path fill="#7a838b" d="M 314.652344 342.074219 L 168.648438 342.074219 C 164.167969 342.074219 160.539062 345.707031 160.539062 350.191406 L 160.539062 358.3125 L 322.761719 358.3125 L 322.761719 350.191406 C 322.761719 345.707031 319.136719 342.074219 314.652344 342.074219 " fill-opacity="1" fill-rule="nonzero"/><path fill="#5d6972" d="M 322.761719 350.191406 L 160.539062 350.191406 L 160.539062 358.3125 L 322.761719 358.3125 L 322.761719 350.191406 " fill-opacity="1" fill-rule="nonzero"/><path fill="#d6e4e8" d="M 286.261719 317.71875 C 286.261719 324.441406 291.710938 329.894531 298.429688 329.894531 L 302.484375 329.894531 L 302.484375 342.074219 L 314.652344 342.074219 L 314.652344 325.835938 C 314.652344 321.347656 311.023438 317.71875 306.542969 317.71875 L 286.261719 317.71875 " fill-opacity="1" fill-rule="nonzero"/><path fill="#d6e4e8" d="M 197.039062 317.71875 C 197.039062 324.441406 191.589844 329.894531 184.871094 329.894531 L 180.816406 329.894531 L 180.816406 342.074219 L 168.648438 342.074219 L 168.648438 325.835938 C 168.648438 321.347656 172.277344 317.71875 176.761719 317.71875 L 197.039062 317.71875 " fill-opacity="1" fill-rule="nonzero"/><g clip-path="url(#dbeb270b39)"><path fill="#7a838b" d="M 132.148438 439.503906 C 127.667969 439.503906 124.039062 435.871094 124.039062 431.382812 L 124.039062 423.265625 L 140.261719 423.265625 L 140.261719 431.382812 C 140.261719 435.871094 136.632812 439.503906 132.148438 439.503906 " fill-opacity="1" fill-rule="nonzero"/></g><g clip-path="url(#1d6365ecf0)"><path fill="#7a838b" d="M 351.152344 439.503906 C 346.667969 439.503906 343.042969 435.871094 343.042969 431.382812 L 343.042969 423.265625 L 359.265625 423.265625 L 359.265625 431.382812 C 359.265625 435.871094 355.636719 439.503906 351.152344 439.503906 " fill-opacity="1" fill-rule="nonzero"/></g><path fill="#baced3" d="M 253.816406 398.90625 C 253.816406 410.121094 244.742188 419.207031 233.539062 419.207031 C 222.339844 419.207031 213.261719 410.121094 213.261719 398.90625 C 213.261719 387.695312 222.339844 378.609375 233.539062 378.609375 C 244.742188 378.609375 253.816406 387.695312 253.816406 398.90625 " fill-opacity="1" fill-rule="nonzero"/><path fill="#7a838b" d="M 261.929688 390.789062 C 261.929688 402 252.851562 411.085938 241.652344 411.085938 C 230.449219 411.085938 221.375 402 221.375 390.789062 C 221.375 379.578125 230.449219 370.492188 241.652344 370.492188 C 252.851562 370.492188 261.929688 379.578125 261.929688 390.789062 " fill-opacity="1" fill-rule="nonzero"/><path fill="#d6e4e8" d="M 227.3125 405.140625 C 224.144531 401.96875 224.144531 396.832031 227.3125 393.660156 L 244.519531 376.4375 C 247.6875 373.265625 252.820312 373.265625 255.988281 376.4375 C 259.15625 379.609375 259.15625 384.746094 255.988281 387.917969 L 238.785156 405.140625 C 235.617188 408.3125 230.484375 408.3125 227.3125 405.140625 " fill-opacity="1" fill-rule="nonzero"/><path fill="#fcab68" d="M 225.429688 329.894531 C 225.429688 341.105469 218.171875 342.074219 209.207031 342.074219 C 200.238281 342.074219 192.984375 341.105469 192.984375 329.894531 C 192.984375 318.683594 200.238281 301.480469 209.207031 301.480469 C 218.171875 301.480469 225.429688 318.683594 225.429688 329.894531 " fill-opacity="1" fill-rule="nonzero"/><path fill="#f98658" d="M 217.316406 335.984375 C 217.316406 341.597656 213.691406 342.074219 209.207031 342.074219 C 204.722656 342.074219 201.09375 341.597656 201.09375 335.984375 C 201.09375 330.371094 204.722656 321.777344 209.207031 321.777344 C 213.691406 321.777344 217.316406 330.371094 217.316406 335.984375 " fill-opacity="1" fill-rule="nonzero"/><g clip-path="url(#b958738011)"><path fill="#fcab68" d="M 257.875 329.894531 C 257.875 341.105469 250.617188 342.074219 241.652344 342.074219 C 232.683594 342.074219 225.429688 341.105469 225.429688 329.894531 C 225.429688 318.683594 232.683594 285.242188 241.652344 285.242188 C 250.617188 285.242188 257.875 318.683594 257.875 329.894531 " fill-opacity="1" fill-rule="nonzero"/></g><path fill="#f98658" d="M 249.761719 335.984375 C 249.761719 341.597656 246.132812 342.074219 241.652344 342.074219 C 237.167969 342.074219 233.539062 341.597656 233.539062 335.984375 C 233.539062 330.371094 237.167969 313.65625 241.652344 313.65625 C 246.132812 313.65625 249.761719 330.371094 249.761719 335.984375 " fill-opacity="1" fill-rule="nonzero"/><path fill="#fcab68" d="M 290.320312 329.894531 C 290.320312 341.105469 283.0625 342.074219 274.097656 342.074219 C 265.128906 342.074219 257.875 341.105469 257.875 329.894531 C 257.875 318.683594 265.128906 301.480469 274.097656 301.480469 C 283.0625 301.480469 290.320312 318.683594 290.320312 329.894531 " fill-opacity="1" fill-rule="nonzero"/><path fill="#f98658" d="M 282.207031 335.984375 C 282.207031 341.597656 278.578125 342.074219 274.097656 342.074219 C 269.613281 342.074219 265.984375 341.597656 265.984375 335.984375 C 265.984375 330.371094 269.613281 321.777344 274.097656 321.777344 C 278.578125 321.777344 282.207031 330.371094 282.207031 335.984375 " fill-opacity="1" fill-rule="nonzero"/></svg>